# xmcd
#
# Track frame offsets: 
#        150
#        14150
#        29195
#        46122
#        68687
#        84807
#        105225
#        129941
#        147135
#        170777
#        193344
#        219149
#        232030
#        242777
#        259969
#        280388
#        304031
#
# Disc length: 4316 seconds
#
# Revision: 0
# Processed by: cddbd v1.5.2PL0 Copyright (c) Steve Scherf et al.
# Submitted via: ExactAudioCopy v0.99pb4
#
DISCID=f310da11
DTITLE=Various Artist - Ezakt - Lust Love Electro
DYEAR=2007
DGENRE=Electro
TTITLE0=Eggfooyoung - Hoconut Grove
TTITLE1=Dynamik Bass System - Fearless Computer
TTITLE2=Hyde - Dominator
TTITLE3=Debonaire and Exzakt - Final Ignition
TTITLE4=Max Durante - Electron X (ocean drive mix)
TTITLE5=Cha-os - Emergency (bassing guild rework)
TTITLE6=Imatran Voima - Techno Slut (exzakt vs. dbs mix)
TTITLE7=Hydraulix - Stressboxxx
TTITLE8=Boris Divider - Extincion Humana (larry mccormick mix))
TTITLE9=Larry McCormick - No Disco
TTITLE10=Exzakt - Future Shock
TTITLE11=Dexorcist - Clandenstine Warfare
TTITLE12=Get It Boyz - Electric Fuck
TTITLE13=Kronos Device - Prime Directive
TTITLE14=Xerodefx - Synaptic Pressure
TTITLE15=Uprokk - N.E.O. Hunter
TTITLE16=AS1 - Clouds of Thunder
EXTD=
EXTT0=
EXTT1=
EXTT2=
EXTT3=
EXTT4=
EXTT5=
EXTT6=
EXTT7=
EXTT8=
EXTT9=
EXTT10=
EXTT11=
EXTT12=
EXTT13=
EXTT14=
EXTT15=
EXTT16=
PLAYORDER=
